<svg width="215" height="215" viewBox="0 0 215 215" fill="none" xmlns="http://www.w3.org/2000/svg">
<path d="M135.703 60.0437C135.703 61.1045 136.125 62.1219 136.875 62.872L151.579 77.5761C152.329 78.3263 153.347 78.7477 154.407 78.7477L172.792 78.7477C175.001 78.7477 176.792 80.5386 176.792 82.7477V154.747C176.792 156.957 175.001 158.747 172.792 158.747L155.792 158.747C153.583 158.747 151.792 156.957 151.792 154.747L151.792 89.8188C151.792 86.2552 147.484 84.4705 144.964 86.9903L70.9541 161C69.392 162.562 66.8593 162.562 65.2972 161L53.2764 148.979C51.7143 147.417 51.7143 144.884 53.2764 143.322L127.114 69.4847C129.634 66.9648 127.849 62.6562 124.286 62.6563L59.703 62.6568C57.4938 62.6569 55.703 60.866 55.703 58.6568L55.703 41.6568C55.703 39.4476 57.4938 37.6568 59.703 37.6568L131.703 37.6568C133.912 37.6568 135.703 39.4476 135.703 41.6567L135.703 60.0437Z" fill="#ECECEC"/>
</svg>
