<svg width="47" height="31" viewBox="0 0 47 31" fill="none" xmlns="http://www.w3.org/2000/svg">
<path d="M46.2608 10.2459H42.6037C41.9898 10.2459 41.7045 9.81187 41.9595 9.27464L43.4898 6.05559C43.7449 5.51837 43.4553 5.07999 42.8457 5.07999H39.1843C38.5747 5.07999 38.2851 4.64592 38.5402 4.10869L40.0316 0.971302C40.2866 0.434077 39.997 0 39.3875 0H18.7934C18.1795 0 17.4792 0.434077 17.2242 0.971302L16.9821 1.48274L15.7457 4.08291C15.4907 4.62013 14.7904 5.05421 14.1766 5.05421H10.5799C9.96609 5.05421 9.26579 5.48829 9.01074 6.02981L7.44154 9.33481C7.18217 9.87204 7.4718 10.3061 8.08132 10.3061H11.7082C12.3177 10.3061 12.6074 10.7402 12.3523 11.2817L10.4027 15.3818L10.3724 15.442L8.42283 19.5421C8.16778 20.0793 7.46748 20.5177 6.85363 20.5177H3.23108C2.62156 20.5177 1.91693 20.9518 1.66188 21.489L0.0926875 24.794C-0.162361 25.3312 0.127269 25.7696 0.736792 25.7696H4.39825C5.00777 25.7696 5.2974 26.2037 5.03803 26.7409L3.48181 30.0244C3.22243 30.5616 3.51207 31 4.12159 31H24.6595C25.269 31 25.9693 30.5616 26.2244 30.0244L27.7546 26.8054C28.014 26.2681 28.7143 25.834 29.3238 25.834H32.9853C33.5948 25.834 34.2994 25.3957 34.5545 24.8584L36.0848 21.6394C36.3398 21.1022 37.0401 20.6681 37.654 20.6681H41.3111C41.925 20.6681 42.6253 20.2297 42.8803 19.6925L45.4049 14.3761L46.9049 11.2215C46.9265 11.1786 46.9438 11.1399 46.9568 11.0969C46.987 11.0024 47 10.9207 47 10.8433C47 10.4952 46.7233 10.2459 46.2608 10.2459ZM40.8961 11.3075L38.9465 15.4162L38.9033 15.4979L36.9537 19.6065C36.6986 20.1438 35.994 20.5821 35.3845 20.5821H31.723C31.1135 20.5821 30.4089 21.0162 30.1538 21.5534L28.6235 24.7725C28.3685 25.314 27.6682 25.7481 27.0587 25.7481H6.7153C6.10578 25.7481 5.81615 25.314 6.0712 24.7725L7.57555 21.6093C7.8306 21.0678 8.53522 20.6337 9.14475 20.6337H12.7673C13.3811 20.6337 14.0814 20.1996 14.3365 19.6624L16.3423 15.442L16.3682 15.3818L18.374 11.1614C18.6291 10.6242 18.3438 10.1901 17.7299 10.1901H14.1074C13.4979 10.1901 13.2082 9.7517 13.4633 9.21447L14.8855 6.22321C15.1405 5.68598 15.8452 5.25191 16.4547 5.25191H36.7937C37.4076 5.25191 37.6929 5.68598 37.4378 6.22321L35.9508 9.3606C35.6957 9.89782 35.981 10.3319 36.5949 10.3319H40.252C40.8659 10.3319 41.1512 10.7703 40.8961 11.3075Z" fill="white"/>
<path d="M46.2608 10.2459H42.6037C41.9898 10.2459 41.7045 9.81187 41.9595 9.27464L43.4898 6.05559C43.7449 5.51837 43.4553 5.07999 42.8457 5.07999H39.1843C38.5747 5.07999 38.2851 4.64592 38.5402 4.10869L40.0316 0.971302C40.2866 0.434077 39.997 0 39.3875 0H18.7934C18.1795 0 17.4792 0.434077 17.2242 0.971302L16.9821 1.48274L15.7457 4.08291C15.4907 4.62013 14.7904 5.05421 14.1766 5.05421H10.5799C9.96609 5.05421 9.26579 5.48829 9.01074 6.02981L7.44154 9.33481C7.18217 9.87204 7.4718 10.3061 8.08132 10.3061H11.7082C12.3177 10.3061 12.6074 10.7402 12.3523 11.2817L10.4027 15.3818L10.3724 15.442L8.42283 19.5421C8.16778 20.0793 7.46748 20.5177 6.85363 20.5177H3.23108C2.62156 20.5177 1.91693 20.9518 1.66188 21.489L0.0926875 24.794C-0.162361 25.3312 0.127269 25.7696 0.736792 25.7696H4.39825C5.00777 25.7696 5.2974 26.2037 5.03803 26.7409L3.48181 30.0244C3.22243 30.5616 3.51207 31 4.12159 31H24.6595C25.269 31 25.9693 30.5616 26.2244 30.0244L27.7546 26.8054C28.014 26.2681 28.7143 25.834 29.3238 25.834H32.9853C33.5948 25.834 34.2994 25.3957 34.5545 24.8584L36.0848 21.6394C36.3398 21.1022 37.0401 20.6681 37.654 20.6681H41.3111C41.925 20.6681 42.6253 20.2297 42.8803 19.6925L45.4049 14.3761L46.9049 11.2215C46.9265 11.1786 46.9438 11.1399 46.9568 11.0969C46.987 11.0024 47 10.9207 47 10.8433C47 10.4952 46.7233 10.2459 46.2608 10.2459ZM40.8961 11.3075L38.9465 15.4162L38.9033 15.4979L36.9537 19.6065C36.6986 20.1438 35.994 20.5821 35.3845 20.5821H31.723C31.1135 20.5821 30.4089 21.0162 30.1538 21.5534L28.6235 24.7725C28.3685 25.314 27.6682 25.7481 27.0587 25.7481H6.7153C6.10578 25.7481 5.81615 25.314 6.0712 24.7725L7.57555 21.6093C7.8306 21.0678 8.53522 20.6337 9.14475 20.6337H12.7673C13.3811 20.6337 14.0814 20.1996 14.3365 19.6624L16.3423 15.442L16.3682 15.3818L18.374 11.1614C18.6291 10.6242 18.3438 10.1901 17.7299 10.1901H14.1074C13.4979 10.1901 13.2082 9.7517 13.4633 9.21447L14.8855 6.22321C15.1405 5.68598 15.8452 5.25191 16.4547 5.25191H36.7937C37.4076 5.25191 37.6929 5.68598 37.4378 6.22321L35.9508 9.3606C35.6957 9.89782 35.981 10.3319 36.5949 10.3319H40.252C40.8659 10.3319 41.1512 10.7703 40.8961 11.3075Z" fill="white"/>
</svg>
